<svg xmlns="http://www.w3.org/2000/svg" xmlns:xlink="http://www.w3.org/1999/xlink" width="501" zoomAndPan="magnify" viewBox="0 0 375.75 56.249996" height="75" preserveAspectRatio="xMidYMid meet" version="1.0"><defs><g/><clipPath id="387871e193"><path d="M 2.347656 0 L 373.15625 0 L 373.15625 55.511719 L 2.347656 55.511719 Z M 2.347656 0 " clip-rule="nonzero"/></clipPath><clipPath id="4c72536ad8"><path d="M 202.542969 39.113281 L 221.042969 39.113281 L 221.042969 39.851562 L 202.542969 39.851562 Z M 202.542969 39.113281 " clip-rule="nonzero"/></clipPath><clipPath id="0854a9bdaa"><path d="M 312.796875 39.113281 L 331.296875 39.113281 L 331.296875 39.851562 L 312.796875 39.851562 Z M 312.796875 39.113281 " clip-rule="nonzero"/></clipPath><clipPath id="f2ba763fc4"><path d="M 84 32 L 133 32 L 133 43.429688 L 84 43.429688 Z M 84 32 " clip-rule="nonzero"/></clipPath><clipPath id="467fb63ee9"><path d="M 9 14 L 185.53125 14 L 185.53125 43.429688 L 9 43.429688 Z M 9 14 " clip-rule="nonzero"/></clipPath></defs><g clip-path="url(#387871e193)"><path fill="#ffffff" d="M 2.347656 0 L 373.15625 0 L 373.15625 55.511719 L 2.347656 55.511719 Z M 2.347656 0 " fill-opacity="1" fill-rule="nonzero"/><path fill="#ffffff" d="M 2.347656 0 L 373.15625 0 L 373.15625 55.511719 L 2.347656 55.511719 Z M 2.347656 0 " fill-opacity="1" fill-rule="nonzero"/></g><g fill="#000000" fill-opacity="1"><g transform="translate(235.990791, 33.544962)"><g><path d="M 0.175781 0 L 10.550781 0 C 11.59375 0 12.351562 -0.757812 12.351562 -1.800781 L 12.351562 -3.492188 C 12.351562 -4.535156 11.59375 -5.292969 10.550781 -5.292969 L 2.117188 -5.292969 C 1.921875 -5.292969 1.765625 -5.453125 1.765625 -5.644531 L 1.765625 -6.703125 C 1.765625 -6.898438 1.921875 -7.058594 2.117188 -7.058594 L 12.175781 -7.058594 C 12.28125 -7.058594 12.351562 -7.128906 12.351562 -7.234375 L 12.351562 -8.644531 C 12.351562 -8.75 12.28125 -8.824219 12.175781 -8.824219 L 1.800781 -8.824219 C 0.757812 -8.824219 0 -8.0625 0 -7.023438 L 0 -5.328125 C 0 -4.289062 0.757812 -3.527344 1.800781 -3.527344 L 10.234375 -3.527344 C 10.429688 -3.527344 10.585938 -3.371094 10.585938 -3.175781 L 10.585938 -2.117188 C 10.585938 -1.921875 10.429688 -1.765625 10.234375 -1.765625 L 0.175781 -1.765625 C 0.0703125 -1.765625 0 -1.695312 0 -1.589844 L 0 -0.175781 C 0 -0.0703125 0.0703125 0 0.175781 0 Z M 0.175781 0 "/></g></g></g><g fill="#000000" fill-opacity="1"><g transform="translate(251.864099, 33.544962)"><g><path d="M 0.175781 0 L 1.589844 0 C 1.695312 0 1.765625 -0.0703125 1.765625 -0.175781 L 1.765625 -3.527344 L 10.585938 -3.527344 L 10.585938 -0.175781 C 10.585938 -0.0703125 10.65625 0 10.761719 0 L 12.175781 0 C 12.28125 0 12.351562 -0.0703125 12.351562 -0.175781 L 12.351562 -7.023438 C 12.351562 -8.0625 11.59375 -8.824219 10.550781 -8.824219 L 1.800781 -8.824219 C 0.757812 -8.824219 0 -8.0625 0 -7.023438 L 0 -0.175781 C 0 -0.0703125 0.0703125 0 0.175781 0 Z M 1.765625 -5.292969 L 1.765625 -6.703125 C 1.765625 -6.898438 1.921875 -7.058594 2.117188 -7.058594 L 10.234375 -7.058594 C 10.429688 -7.058594 10.585938 -6.898438 10.585938 -6.703125 L 10.585938 -5.292969 Z M 1.765625 -5.292969 "/></g></g></g><g fill="#000000" fill-opacity="1"><g transform="translate(267.737406, 33.544962)"><g><path d="M 0.175781 0 L 1.589844 0 C 1.695312 0 1.765625 -0.0703125 1.765625 -0.175781 L 1.765625 -3.527344 L 11.328125 -3.527344 C 11.46875 -3.527344 11.539062 -3.597656 11.539062 -3.707031 L 11.539062 -5.117188 C 11.539062 -5.222656 11.46875 -5.292969 11.328125 -5.292969 L 1.765625 -5.292969 L 1.765625 -6.703125 C 1.765625 -6.898438 1.921875 -7.058594 2.117188 -7.058594 L 12.175781 -7.058594 C 12.28125 -7.058594 12.351562 -7.128906 12.351562 -7.234375 L 12.351562 -8.644531 C 12.351562 -8.75 12.28125 -8.824219 12.175781 -8.824219 L 1.800781 -8.824219 C 0.757812 -8.824219 0 -8.0625 0 -7.023438 L 0 -0.175781 C 0 -0.0703125 0.0703125 0 0.175781 0 Z M 0.175781 0 "/></g></g></g><g fill="#000000" fill-opacity="1"><g transform="translate(283.610714, 33.544962)"><g><path d="M 1.800781 0 L 12.175781 0 C 12.28125 0 12.351562 -0.0703125 12.351562 -0.175781 L 12.351562 -1.589844 C 12.351562 -1.695312 12.28125 -1.765625 12.175781 -1.765625 L 2.117188 -1.765625 C 1.921875 -1.765625 1.765625 -1.921875 1.765625 -2.117188 L 1.765625 -3.527344 L 11.328125 -3.527344 C 11.46875 -3.527344 11.539062 -3.597656 11.539062 -3.707031 L 11.539062 -5.117188 C 11.539062 -5.222656 11.46875 -5.292969 11.328125 -5.292969 L 1.765625 -5.292969 L 1.765625 -6.703125 C 1.765625 -6.898438 1.921875 -7.058594 2.117188 -7.058594 L 12.175781 -7.058594 C 12.28125 -7.058594 12.351562 -7.128906 12.351562 -7.234375 L 12.351562 -8.644531 C 12.351562 -8.75 12.28125 -8.824219 12.175781 -8.824219 L 1.800781 -8.824219 C 0.757812 -8.824219 0 -8.0625 0 -7.023438 L 0 -1.800781 C 0 -0.757812 0.757812 0 1.800781 0 Z M 1.800781 0 "/></g></g></g><g fill="#000000" fill-opacity="1"><g transform="translate(234.694557, 40.462782)"><g><path d="M 0.0742188 0 L 0.65625 0 C 0.699219 0 0.726562 -0.0273438 0.726562 -0.0742188 L 0.726562 -1.453125 L 3.476562 -1.453125 L 3.984375 0 L 4.785156 0 L 4.277344 -1.453125 L 4.347656 -1.453125 C 4.777344 -1.453125 5.089844 -1.765625 5.089844 -2.195312 L 5.089844 -2.894531 C 5.089844 -3.324219 4.777344 -3.636719 4.347656 -3.636719 L 0.0742188 -3.636719 C 0.0273438 -3.636719 0 -3.605469 0 -3.5625 L 0 -0.0742188 C 0 -0.0273438 0.0273438 0 0.0742188 0 Z M 0.726562 -2.183594 L 0.726562 -2.910156 L 4.21875 -2.910156 C 4.296875 -2.910156 4.363281 -2.84375 4.363281 -2.761719 L 4.363281 -2.328125 C 4.363281 -2.246094 4.296875 -2.183594 4.21875 -2.183594 Z M 0.726562 -2.183594 "/></g></g></g><g fill="#000000" fill-opacity="1"><g transform="translate(243.574703, 40.462782)"><g><path d="M 0.742188 0 L 5.019531 0 C 5.0625 0 5.089844 -0.0273438 5.089844 -0.0742188 L 5.089844 -0.65625 C 5.089844 -0.699219 5.0625 -0.726562 5.019531 -0.726562 L 0.871094 -0.726562 C 0.792969 -0.726562 0.726562 -0.792969 0.726562 -0.871094 L 0.726562 -1.453125 L 4.667969 -1.453125 C 4.726562 -1.453125 4.757812 -1.484375 4.757812 -1.527344 L 4.757812 -2.109375 C 4.757812 -2.152344 4.726562 -2.183594 4.667969 -2.183594 L 0.726562 -2.183594 L 0.726562 -2.761719 C 0.726562 -2.84375 0.792969 -2.910156 0.871094 -2.910156 L 5.019531 -2.910156 C 5.0625 -2.910156 5.089844 -2.9375 5.089844 -2.980469 L 5.089844 -3.5625 C 5.089844 -3.605469 5.0625 -3.636719 5.019531 -3.636719 L 0.742188 -3.636719 C 0.3125 -3.636719 0 -3.324219 0 -2.894531 L 0 -0.742188 C 0 -0.3125 0.3125 0 0.742188 0 Z M 0.742188 0 "/></g></g></g><g fill="#000000" fill-opacity="1"><g transform="translate(252.45485, 40.462782)"><g><path d="M 5.019531 0 C 5.0625 0 5.089844 -0.0273438 5.089844 -0.0742188 L 5.089844 -3.5625 C 5.089844 -3.605469 5.0625 -3.636719 5.019531 -3.636719 L 4.4375 -3.636719 C 4.394531 -3.636719 4.363281 -3.605469 4.363281 -3.5625 L 4.363281 -0.945312 L 0.726562 -3.636719 L 0.0742188 -3.636719 C 0.0273438 -3.636719 0 -3.605469 0 -3.5625 L 0 -0.0742188 C 0 -0.0273438 0.0273438 0 0.0742188 0 L 0.65625 0 C 0.699219 0 0.726562 -0.0273438 0.726562 -0.0742188 L 0.726562 -2.691406 L 4.363281 0 Z M 5.019531 0 "/></g></g></g><g fill="#000000" fill-opacity="1"><g transform="translate(261.334995, 40.462782)"><g><path d="M 2.253906 0 L 2.835938 0 C 2.878906 0 2.910156 -0.0273438 2.910156 -0.0742188 L 2.910156 -2.910156 L 5.019531 -2.910156 C 5.0625 -2.910156 5.089844 -2.9375 5.089844 -2.980469 L 5.089844 -3.5625 C 5.089844 -3.605469 5.0625 -3.636719 5.019531 -3.636719 L 0.0742188 -3.636719 C 0.0273438 -3.636719 0 -3.605469 0 -3.5625 L 0 -2.980469 C 0 -2.9375 0.0273438 -2.910156 0.0742188 -2.910156 L 2.183594 -2.910156 L 2.183594 -0.0742188 C 2.183594 -0.0273438 2.210938 0 2.253906 0 Z M 2.253906 0 "/></g></g></g><g fill="#000000" fill-opacity="1"><g transform="translate(270.215143, 40.462782)"><g/></g></g><g fill="#000000" fill-opacity="1"><g transform="translate(275.458856, 40.462782)"><g><path d="M 0.742188 0 L 5.019531 0 C 5.0625 0 5.089844 -0.0273438 5.089844 -0.0742188 L 5.089844 -0.65625 C 5.089844 -0.699219 5.0625 -0.726562 5.019531 -0.726562 L 0.871094 -0.726562 C 0.792969 -0.726562 0.726562 -0.792969 0.726562 -0.871094 L 0.726562 -2.761719 C 0.726562 -2.84375 0.792969 -2.910156 0.871094 -2.910156 L 5.019531 -2.910156 C 5.0625 -2.910156 5.089844 -2.9375 5.089844 -2.980469 L 5.089844 -3.5625 C 5.089844 -3.605469 5.0625 -3.636719 5.019531 -3.636719 L 0.742188 -3.636719 C 0.3125 -3.636719 0 -3.324219 0 -2.894531 L 0 -0.742188 C 0 -0.3125 0.3125 0 0.742188 0 Z M 0.742188 0 "/></g></g></g><g fill="#000000" fill-opacity="1"><g transform="translate(284.339003, 40.462782)"><g><path d="M 0.0742188 0 L 0.65625 0 C 0.699219 0 0.726562 -0.0273438 0.726562 -0.0742188 L 0.726562 -1.453125 L 4.363281 -1.453125 L 4.363281 -0.0742188 C 4.363281 -0.0273438 4.394531 0 4.4375 0 L 5.019531 0 C 5.0625 0 5.089844 -0.0273438 5.089844 -0.0742188 L 5.089844 -2.894531 C 5.089844 -3.324219 4.777344 -3.636719 4.347656 -3.636719 L 0.742188 -3.636719 C 0.3125 -3.636719 0 -3.324219 0 -2.894531 L 0 -0.0742188 C 0 -0.0273438 0.0273438 0 0.0742188 0 Z M 0.726562 -2.183594 L 0.726562 -2.761719 C 0.726562 -2.84375 0.792969 -2.910156 0.871094 -2.910156 L 4.21875 -2.910156 C 4.296875 -2.910156 4.363281 -2.84375 4.363281 -2.761719 L 4.363281 -2.183594 Z M 0.726562 -2.183594 "/></g></g></g><g fill="#000000" fill-opacity="1"><g transform="translate(293.219151, 40.462782)"><g><path d="M 0.0742188 0 L 0.65625 0 C 0.699219 0 0.726562 -0.0273438 0.726562 -0.0742188 L 0.726562 -1.453125 L 3.476562 -1.453125 L 3.984375 0 L 4.785156 0 L 4.277344 -1.453125 L 4.347656 -1.453125 C 4.777344 -1.453125 5.089844 -1.765625 5.089844 -2.195312 L 5.089844 -2.894531 C 5.089844 -3.324219 4.777344 -3.636719 4.347656 -3.636719 L 0.0742188 -3.636719 C 0.0273438 -3.636719 0 -3.605469 0 -3.5625 L 0 -0.0742188 C 0 -0.0273438 0.0273438 0 0.0742188 0 Z M 0.726562 -2.183594 L 0.726562 -2.910156 L 4.21875 -2.910156 C 4.296875 -2.910156 4.363281 -2.84375 4.363281 -2.761719 L 4.363281 -2.328125 C 4.363281 -2.246094 4.296875 -2.183594 4.21875 -2.183594 Z M 0.726562 -2.183594 "/></g></g></g><g clip-path="url(#4c72536ad8)"><path fill="#2b59ff" d="M 220.019531 41.3125 L 220.019531 47.347656 L 221.507812 48.835938 L 221.507812 49.792969 L 202.332031 49.792969 L 202.332031 28.664062 L 221.507812 28.664062 L 221.507812 39.824219 Z M 220.019531 41.3125 " fill-opacity="1" fill-rule="nonzero"/></g><g clip-path="url(#0854a9bdaa)"><path fill="#2b59ff" d="M 330.273438 41.3125 L 330.273438 47.347656 L 331.761719 48.835938 L 331.761719 49.792969 L 312.585938 49.792969 L 312.585938 28.664062 L 331.761719 28.664062 L 331.761719 39.824219 Z M 330.273438 41.3125 " fill-opacity="1" fill-rule="nonzero"/></g><g clip-path="url(#f2ba763fc4)"><path fill="#2b59ff" d="M 84.617188 33.742188 C 84.617188 33.742188 94.71875 29.925781 110.953125 33.742188 C 127.183594 37.558594 132.722656 43.167969 132.722656 43.167969 L 115.464844 43.167969 C 113.886719 41.078125 109.695312 36.496094 102.648438 35.460938 C 102.648438 35.460938 110.164062 37.59375 112.777344 43.167969 L 107.785156 43.167969 C 107.785156 43.167969 99.703125 32.246094 86.835938 40.425781 C 86.835938 40.425781 89.183594 36.0625 93.445312 34.117188 C 93.445312 34.117188 89.554688 32.84375 84.617188 33.742188 " fill-opacity="1" fill-rule="nonzero"/></g><g clip-path="url(#467fb63ee9)"><path fill="#2b59ff" d="M 124.941406 26.636719 C 124.941406 26.636719 104.742188 25.8125 82.671875 27.457031 C 82.671875 27.457031 73.621094 20.824219 70.429688 18.429688 C 67.238281 16.039062 98.308594 12.347656 124.941406 26.636719 Z M 9.636719 43.167969 C 19.609375 36.535156 26.292969 43.167969 26.292969 43.167969 C 26.292969 43.167969 25.195312 36.335938 35.070312 37.53125 C 44.945312 38.730469 76.964844 43.167969 76.964844 43.167969 L 30.683594 32.546875 C 62.402344 36.234375 73.371094 31.746094 73.371094 31.746094 C 45.230469 34.324219 33.375 25.863281 33.375 25.863281 C 33.375 25.863281 47.140625 16.1875 58.011719 17.980469 C 68.882812 19.777344 76.613281 31.347656 76.613281 31.347656 C 113.871094 22.070312 145.136719 43.167969 145.136719 43.167969 L 185.085938 43.167969 C 181.296875 38.980469 172.96875 35.886719 172.96875 35.886719 C 177.257812 37.234375 181.097656 38.929688 181.097656 38.929688 C 172.71875 29.351562 157.457031 31.148438 157.457031 31.148438 C 146.484375 27.957031 130.328125 26.710938 130.328125 26.710938 C 107.285156 13.84375 84.144531 13.59375 60.804688 15.089844 C 37.464844 16.585938 28.136719 29.03125 21.554688 29.328125 C 14.972656 29.628906 12.378906 33.195312 12.828125 33.042969 C 13.277344 32.894531 14.449219 32.695312 14.449219 32.695312 C 8.089844 36.359375 9.636719 43.167969 9.636719 43.167969 " fill-opacity="1" fill-rule="nonzero"/></g></svg>