<svg xmlns="http://www.w3.org/2000/svg" xmlns:xlink="http://www.w3.org/1999/xlink" width="501" zoomAndPan="magnify" viewBox="0 0 375.75 56.249996" height="75" preserveAspectRatio="xMidYMid meet" version="1.0"><defs><g/><clipPath id="5a3fe54a2b"><path d="M 110 40 L 179 40 L 179 55.511719 L 110 55.511719 Z M 110 40 " clip-rule="nonzero"/></clipPath><clipPath id="575744f8fc"><path d="M 4 15 L 253 15 L 253 55.511719 L 4 55.511719 Z M 4 15 " clip-rule="nonzero"/></clipPath><clipPath id="55546a55ea"><path d="M 212.832031 38.402344 L 235.773438 38.402344 L 235.773438 39.140625 L 212.832031 39.140625 Z M 212.832031 38.402344 " clip-rule="nonzero"/></clipPath><clipPath id="7cea0c6fe4"><path d="M 348.800781 38.402344 L 371.746094 38.402344 L 371.746094 39.140625 L 348.800781 39.140625 Z M 348.800781 38.402344 " clip-rule="nonzero"/></clipPath></defs><g clip-path="url(#5a3fe54a2b)"><path fill="#2b59ff" d="M 110.753906 42.949219 C 110.753906 42.949219 125.023438 37.558594 147.957031 42.949219 C 170.890625 48.339844 178.710938 56.265625 178.710938 56.265625 L 154.332031 56.265625 C 152.105469 53.3125 146.183594 46.835938 136.226562 45.378906 C 136.226562 45.378906 146.84375 48.390625 150.535156 56.265625 L 143.484375 56.265625 C 143.484375 56.265625 132.070312 40.835938 113.890625 52.390625 C 113.890625 52.390625 117.203125 46.226562 123.226562 43.476562 C 123.226562 43.476562 117.730469 41.679688 110.753906 42.949219 " fill-opacity="1" fill-rule="nonzero"/></g><g clip-path="url(#575744f8fc)"><path fill="#2b59ff" d="M 167.71875 32.910156 C 167.71875 32.910156 139.183594 31.746094 108.007812 34.070312 C 108.007812 34.070312 95.21875 24.699219 90.710938 21.320312 C 86.199219 17.9375 130.097656 12.722656 167.71875 32.910156 Z M 4.820312 56.265625 C 18.914062 46.894531 28.355469 56.265625 28.355469 56.265625 C 28.355469 56.265625 26.804688 46.613281 40.753906 48.304688 C 54.707031 49.996094 99.941406 56.265625 99.941406 56.265625 L 34.554688 41.257812 C 79.367188 46.472656 94.867188 40.128906 94.867188 40.128906 C 55.113281 43.773438 38.359375 31.816406 38.359375 31.816406 C 38.359375 31.816406 57.804688 18.148438 73.167969 20.683594 C 88.527344 23.222656 99.445312 39.566406 99.445312 39.566406 C 152.078125 26.460938 196.253906 56.265625 196.253906 56.265625 L 252.695312 56.265625 C 247.339844 50.347656 235.570312 45.980469 235.570312 45.980469 C 241.632812 47.882812 247.054688 50.277344 247.054688 50.277344 C 235.21875 36.75 213.660156 39.285156 213.660156 39.285156 C 198.15625 34.777344 175.332031 33.015625 175.332031 33.015625 C 142.777344 14.835938 110.085938 14.484375 77.113281 16.597656 C 44.136719 18.710938 30.960938 36.292969 21.660156 36.714844 C 12.359375 37.136719 8.699219 42.175781 9.332031 41.960938 C 9.964844 41.75 11.621094 41.46875 11.621094 41.46875 C 2.636719 46.648438 4.820312 56.265625 4.820312 56.265625 " fill-opacity="1" fill-rule="nonzero"/></g><g fill="#000000" fill-opacity="1"><g transform="translate(254.082206, 31.536235)"><g><path d="M 0.21875 0 L 13.011719 0 C 14.296875 0 15.230469 -0.9375 15.230469 -2.21875 L 15.230469 -4.308594 C 15.230469 -5.59375 14.296875 -6.527344 13.011719 -6.527344 L 2.609375 -6.527344 C 2.371094 -6.527344 2.175781 -6.722656 2.175781 -6.964844 L 2.175781 -8.269531 C 2.175781 -8.507812 2.371094 -8.703125 2.609375 -8.703125 L 15.015625 -8.703125 C 15.144531 -8.703125 15.230469 -8.792969 15.230469 -8.921875 L 15.230469 -10.664062 C 15.230469 -10.792969 15.144531 -10.878906 15.015625 -10.878906 L 2.21875 -10.878906 C 0.9375 -10.878906 0 -9.945312 0 -8.660156 L 0 -6.570312 C 0 -5.289062 0.9375 -4.351562 2.21875 -4.351562 L 12.621094 -4.351562 C 12.859375 -4.351562 13.054688 -4.15625 13.054688 -3.917969 L 13.054688 -2.609375 C 13.054688 -2.371094 12.859375 -2.175781 12.621094 -2.175781 L 0.21875 -2.175781 C 0.0859375 -2.175781 0 -2.089844 0 -1.957031 L 0 -0.21875 C 0 -0.0859375 0.0859375 0 0.21875 0 Z M 0.21875 0 "/></g></g></g><g fill="#000000" fill-opacity="1"><g transform="translate(273.657947, 31.536235)"><g><path d="M 0.21875 0 L 1.957031 0 C 2.089844 0 2.175781 -0.0859375 2.175781 -0.21875 L 2.175781 -4.351562 L 13.054688 -4.351562 L 13.054688 -0.21875 C 13.054688 -0.0859375 13.144531 0 13.273438 0 L 15.015625 0 C 15.144531 0 15.230469 -0.0859375 15.230469 -0.21875 L 15.230469 -8.660156 C 15.230469 -9.945312 14.296875 -10.878906 13.011719 -10.878906 L 2.21875 -10.878906 C 0.9375 -10.878906 0 -9.945312 0 -8.660156 L 0 -0.21875 C 0 -0.0859375 0.0859375 0 0.21875 0 Z M 2.175781 -6.527344 L 2.175781 -8.269531 C 2.175781 -8.507812 2.371094 -8.703125 2.609375 -8.703125 L 12.621094 -8.703125 C 12.859375 -8.703125 13.054688 -8.507812 13.054688 -8.269531 L 13.054688 -6.527344 Z M 2.175781 -6.527344 "/></g></g></g><g fill="#000000" fill-opacity="1"><g transform="translate(293.233689, 31.536235)"><g><path d="M 0.21875 0 L 1.957031 0 C 2.089844 0 2.175781 -0.0859375 2.175781 -0.21875 L 2.175781 -4.351562 L 13.96875 -4.351562 C 14.144531 -4.351562 14.230469 -4.4375 14.230469 -4.570312 L 14.230469 -6.308594 C 14.230469 -6.441406 14.144531 -6.527344 13.96875 -6.527344 L 2.175781 -6.527344 L 2.175781 -8.269531 C 2.175781 -8.507812 2.371094 -8.703125 2.609375 -8.703125 L 15.015625 -8.703125 C 15.144531 -8.703125 15.230469 -8.792969 15.230469 -8.921875 L 15.230469 -10.664062 C 15.230469 -10.792969 15.144531 -10.878906 15.015625 -10.878906 L 2.21875 -10.878906 C 0.9375 -10.878906 0 -9.945312 0 -8.660156 L 0 -0.21875 C 0 -0.0859375 0.0859375 0 0.21875 0 Z M 0.21875 0 "/></g></g></g><g fill="#000000" fill-opacity="1"><g transform="translate(312.809431, 31.536235)"><g><path d="M 2.21875 0 L 15.015625 0 C 15.144531 0 15.230469 -0.0859375 15.230469 -0.21875 L 15.230469 -1.957031 C 15.230469 -2.089844 15.144531 -2.175781 15.015625 -2.175781 L 2.609375 -2.175781 C 2.371094 -2.175781 2.175781 -2.371094 2.175781 -2.609375 L 2.175781 -4.351562 L 13.96875 -4.351562 C 14.144531 -4.351562 14.230469 -4.4375 14.230469 -4.570312 L 14.230469 -6.308594 C 14.230469 -6.441406 14.144531 -6.527344 13.96875 -6.527344 L 2.175781 -6.527344 L 2.175781 -8.269531 C 2.175781 -8.507812 2.371094 -8.703125 2.609375 -8.703125 L 15.015625 -8.703125 C 15.144531 -8.703125 15.230469 -8.792969 15.230469 -8.921875 L 15.230469 -10.664062 C 15.230469 -10.792969 15.144531 -10.878906 15.015625 -10.878906 L 2.21875 -10.878906 C 0.9375 -10.878906 0 -9.945312 0 -8.660156 L 0 -2.21875 C 0 -0.9375 0.9375 0 2.21875 0 Z M 2.21875 0 "/></g></g></g><g fill="#2b59ff" fill-opacity="1"><g transform="translate(252.495769, 39.987315)"><g><path d="M 0.0898438 0 L 0.808594 0 C 0.859375 0 0.894531 -0.0351562 0.894531 -0.0898438 L 0.894531 -1.792969 L 4.285156 -1.792969 L 4.910156 0 L 5.898438 0 L 5.269531 -1.792969 L 5.359375 -1.792969 C 5.890625 -1.792969 6.273438 -2.179688 6.273438 -2.707031 L 6.273438 -3.566406 C 6.273438 -4.097656 5.890625 -4.480469 5.359375 -4.480469 L 0.0898438 -4.480469 C 0.0351562 -4.480469 0 -4.445312 0 -4.390625 L 0 -0.0898438 C 0 -0.0351562 0.0351562 0 0.0898438 0 Z M 0.894531 -2.6875 L 0.894531 -3.585938 L 5.199219 -3.585938 C 5.296875 -3.585938 5.378906 -3.503906 5.378906 -3.40625 L 5.378906 -2.867188 C 5.378906 -2.769531 5.296875 -2.6875 5.199219 -2.6875 Z M 0.894531 -2.6875 "/></g></g></g><g fill="#2b59ff" fill-opacity="1"><g transform="translate(263.441774, 39.987315)"><g><path d="M 0.914062 0 L 6.183594 0 C 6.238281 0 6.273438 -0.0351562 6.273438 -0.0898438 L 6.273438 -0.808594 C 6.273438 -0.859375 6.238281 -0.894531 6.183594 -0.894531 L 1.074219 -0.894531 C 0.976562 -0.894531 0.894531 -0.976562 0.894531 -1.074219 L 0.894531 -1.792969 L 5.753906 -1.792969 C 5.824219 -1.792969 5.863281 -1.828125 5.863281 -1.882812 L 5.863281 -2.597656 C 5.863281 -2.652344 5.824219 -2.6875 5.753906 -2.6875 L 0.894531 -2.6875 L 0.894531 -3.40625 C 0.894531 -3.503906 0.976562 -3.585938 1.074219 -3.585938 L 6.183594 -3.585938 C 6.238281 -3.585938 6.273438 -3.621094 6.273438 -3.675781 L 6.273438 -4.390625 C 6.273438 -4.445312 6.238281 -4.480469 6.183594 -4.480469 L 0.914062 -4.480469 C 0.386719 -4.480469 0 -4.097656 0 -3.566406 L 0 -0.914062 C 0 -0.386719 0.386719 0 0.914062 0 Z M 0.914062 0 "/></g></g></g><g fill="#2b59ff" fill-opacity="1"><g transform="translate(274.387778, 39.987315)"><g><path d="M 6.183594 0 C 6.238281 0 6.273438 -0.0351562 6.273438 -0.0898438 L 6.273438 -4.390625 C 6.273438 -4.445312 6.238281 -4.480469 6.183594 -4.480469 L 5.46875 -4.480469 C 5.414062 -4.480469 5.378906 -4.445312 5.378906 -4.390625 L 5.378906 -1.164062 L 0.894531 -4.480469 L 0.0898438 -4.480469 C 0.0351562 -4.480469 0 -4.445312 0 -4.390625 L 0 -0.0898438 C 0 -0.0351562 0.0351562 0 0.0898438 0 L 0.808594 0 C 0.859375 0 0.894531 -0.0351562 0.894531 -0.0898438 L 0.894531 -3.316406 L 5.378906 0 Z M 6.183594 0 "/></g></g></g><g fill="#2b59ff" fill-opacity="1"><g transform="translate(285.333785, 39.987315)"><g><path d="M 2.777344 0 L 3.496094 0 C 3.550781 0 3.585938 -0.0351562 3.585938 -0.0898438 L 3.585938 -3.585938 L 6.183594 -3.585938 C 6.238281 -3.585938 6.273438 -3.621094 6.273438 -3.675781 L 6.273438 -4.390625 C 6.273438 -4.445312 6.238281 -4.480469 6.183594 -4.480469 L 0.0898438 -4.480469 C 0.0351562 -4.480469 0 -4.445312 0 -4.390625 L 0 -3.675781 C 0 -3.621094 0.0351562 -3.585938 0.0898438 -3.585938 L 2.6875 -3.585938 L 2.6875 -0.0898438 C 2.6875 -0.0351562 2.726562 0 2.777344 0 Z M 2.777344 0 "/></g></g></g><g fill="#2b59ff" fill-opacity="1"><g transform="translate(296.279788, 39.987315)"><g/></g></g><g fill="#2b59ff" fill-opacity="1"><g transform="translate(302.744561, 39.987315)"><g><path d="M 0.914062 0 L 6.183594 0 C 6.238281 0 6.273438 -0.0351562 6.273438 -0.0898438 L 6.273438 -0.808594 C 6.273438 -0.859375 6.238281 -0.894531 6.183594 -0.894531 L 1.074219 -0.894531 C 0.976562 -0.894531 0.894531 -0.976562 0.894531 -1.074219 L 0.894531 -3.40625 C 0.894531 -3.503906 0.976562 -3.585938 1.074219 -3.585938 L 6.183594 -3.585938 C 6.238281 -3.585938 6.273438 -3.621094 6.273438 -3.675781 L 6.273438 -4.390625 C 6.273438 -4.445312 6.238281 -4.480469 6.183594 -4.480469 L 0.914062 -4.480469 C 0.386719 -4.480469 0 -4.097656 0 -3.566406 L 0 -0.914062 C 0 -0.386719 0.386719 0 0.914062 0 Z M 0.914062 0 "/></g></g></g><g fill="#2b59ff" fill-opacity="1"><g transform="translate(313.690564, 39.987315)"><g><path d="M 0.0898438 0 L 0.808594 0 C 0.859375 0 0.894531 -0.0351562 0.894531 -0.0898438 L 0.894531 -1.792969 L 5.378906 -1.792969 L 5.378906 -0.0898438 C 5.378906 -0.0351562 5.414062 0 5.46875 0 L 6.183594 0 C 6.238281 0 6.273438 -0.0351562 6.273438 -0.0898438 L 6.273438 -3.566406 C 6.273438 -4.097656 5.890625 -4.480469 5.359375 -4.480469 L 0.914062 -4.480469 C 0.386719 -4.480469 0 -4.097656 0 -3.566406 L 0 -0.0898438 C 0 -0.0351562 0.0351562 0 0.0898438 0 Z M 0.894531 -2.6875 L 0.894531 -3.40625 C 0.894531 -3.503906 0.976562 -3.585938 1.074219 -3.585938 L 5.199219 -3.585938 C 5.296875 -3.585938 5.378906 -3.503906 5.378906 -3.40625 L 5.378906 -2.6875 Z M 0.894531 -2.6875 "/></g></g></g><g fill="#2b59ff" fill-opacity="1"><g transform="translate(324.636568, 39.987315)"><g><path d="M 0.0898438 0 L 0.808594 0 C 0.859375 0 0.894531 -0.0351562 0.894531 -0.0898438 L 0.894531 -1.792969 L 4.285156 -1.792969 L 4.910156 0 L 5.898438 0 L 5.269531 -1.792969 L 5.359375 -1.792969 C 5.890625 -1.792969 6.273438 -2.179688 6.273438 -2.707031 L 6.273438 -3.566406 C 6.273438 -4.097656 5.890625 -4.480469 5.359375 -4.480469 L 0.0898438 -4.480469 C 0.0351562 -4.480469 0 -4.445312 0 -4.390625 L 0 -0.0898438 C 0 -0.0351562 0.0351562 0 0.0898438 0 Z M 0.894531 -2.6875 L 0.894531 -3.585938 L 5.199219 -3.585938 C 5.296875 -3.585938 5.378906 -3.503906 5.378906 -3.40625 L 5.378906 -2.867188 C 5.378906 -2.769531 5.296875 -2.6875 5.199219 -2.6875 Z M 0.894531 -2.6875 "/></g></g></g><g clip-path="url(#55546a55ea)"><path fill="#000000" d="M 234.386719 41.113281 L 234.386719 48.558594 L 236.222656 50.394531 L 236.222656 51.574219 L 212.570312 51.574219 L 212.570312 25.511719 L 236.222656 25.511719 L 236.222656 39.277344 Z M 234.386719 41.113281 " fill-opacity="1" fill-rule="nonzero"/></g><g clip-path="url(#7cea0c6fe4)"><path fill="#000000" d="M 370.355469 41.113281 L 370.355469 48.558594 L 372.191406 50.394531 L 372.191406 51.574219 L 348.539062 51.574219 L 348.539062 25.511719 L 372.191406 25.511719 L 372.191406 39.277344 Z M 370.355469 41.113281 " fill-opacity="1" fill-rule="nonzero"/></g></svg>