<svg xmlns="http://www.w3.org/2000/svg" xmlns:xlink="http://www.w3.org/1999/xlink" width="501" zoomAndPan="magnify" viewBox="0 0 375.75 56.249996" height="75" preserveAspectRatio="xMidYMid meet" version="1.0"><defs><g/><clipPath id="2653fe6750"><path d="M 2.347656 0 L 373.15625 0 L 373.15625 55.511719 L 2.347656 55.511719 Z M 2.347656 0 " clip-rule="nonzero"/></clipPath><clipPath id="3e475702e6"><path d="M 2.347656 0 L 117.015625 0 L 117.015625 55.511719 L 2.347656 55.511719 Z M 2.347656 0 " clip-rule="nonzero"/></clipPath><clipPath id="206662440b"><path d="M 19.101562 0 L 86.453125 0 L 86.453125 52.832031 L 19.101562 52.832031 Z M 19.101562 0 " clip-rule="nonzero"/></clipPath><clipPath id="b93cd6ea05"><path d="M 103 0 L 145 0 L 145 55.511719 L 103 55.511719 Z M 103 0 " clip-rule="nonzero"/></clipPath></defs><g clip-path="url(#2653fe6750)"><path fill="#ffffff" d="M 2.347656 0 L 373.15625 0 L 373.15625 55.511719 L 2.347656 55.511719 Z M 2.347656 0 " fill-opacity="1" fill-rule="nonzero"/><path fill="#ffffff" d="M 2.347656 0 L 373.15625 0 L 373.15625 55.511719 L 2.347656 55.511719 Z M 2.347656 0 " fill-opacity="1" fill-rule="nonzero"/></g><g clip-path="url(#3e475702e6)"><path fill="#ffffff" d="M 2.347656 -2.777344 L 117.097656 -2.777344 L 117.097656 55.511719 L 2.347656 55.511719 Z M 2.347656 -2.777344 " fill-opacity="1" fill-rule="nonzero"/></g><g clip-path="url(#206662440b)"><path fill="#2b59ff" d="M 86.109375 24.148438 L 85.320312 21.933594 C 84.894531 20.714844 83.535156 19.714844 82.320312 19.714844 L 79.53125 19.714844 C 77.457031 13.921875 74.953125 6.914062 74.167969 5.269531 C 73.023438 2.695312 69.375 1.550781 67.371094 0.980469 C 67.371094 0.980469 64.011719 -0.308594 52.785156 -0.308594 C 41.558594 -0.308594 38.265625 0.980469 38.265625 0.980469 C 35.90625 1.765625 32.617188 2.910156 31.332031 5.339844 C 30.6875 6.558594 28.113281 13.707031 26.039062 19.714844 L 23.320312 19.714844 C 22.105469 19.714844 20.746094 20.714844 20.316406 21.933594 L 19.53125 24.148438 C 19.101562 25.363281 19.746094 26.367188 20.960938 26.367188 L 23.75 26.367188 C 23.394531 27.367188 23.179688 27.9375 23.179688 27.9375 C 22.964844 28.296875 22.820312 29.941406 22.820312 30.441406 L 22.820312 50.679688 C 22.820312 51.964844 23.894531 53.039062 25.179688 53.039062 L 33.761719 53.039062 C 35.050781 53.039062 36.121094 51.964844 36.121094 50.679688 L 36.121094 46.390625 L 69.519531 46.390625 L 69.519531 50.679688 C 69.519531 51.964844 70.589844 53.039062 71.878906 53.039062 L 80.53125 53.039062 C 81.816406 53.039062 82.890625 51.964844 82.890625 50.679688 L 82.890625 30.441406 C 82.890625 30.011719 82.746094 28.296875 82.53125 27.9375 C 82.53125 27.9375 82.320312 27.367188 81.960938 26.367188 L 84.679688 26.367188 C 85.824219 26.367188 86.464844 25.363281 86.109375 24.148438 Z M 36.121094 36.589844 L 33.261719 34.660156 C 27.96875 34.230469 27.328125 36.089844 26.183594 34.089844 L 26.183594 31.65625 C 26.183594 29.296875 27.539062 29.226562 29.042969 29.226562 C 30.472656 29.226562 33.332031 30.441406 35.265625 31.300781 C 37.339844 32.230469 38.839844 31.441406 39.625 34.519531 C 39.554688 35.949219 38.769531 36.589844 36.121094 36.589844 Z M 31.117188 20.644531 C 32.902344 13.351562 35.90625 8.273438 36.335938 7.058594 C 36.621094 6.199219 35.90625 4.625 52.855469 4.625 C 69.804688 4.625 68.875 6.914062 68.945312 6.984375 C 69.734375 8.632812 72.878906 13.996094 74.523438 20.644531 C 74.523438 20.644531 68.160156 21.503906 53.640625 21.503906 C 39.125 21.503906 31.117188 20.644531 31.117188 20.644531 Z M 66.085938 34.519531 C 69.445312 30.371094 68.375 32.230469 70.449219 31.300781 C 72.308594 30.441406 75.238281 29.226562 76.667969 29.226562 C 78.171875 29.226562 79.53125 29.296875 79.53125 31.65625 L 79.53125 34.089844 C 78.457031 36.019531 77.527344 34.304688 72.164062 34.804688 L 69.519531 36.519531 C 66.871094 36.589844 65.15625 35.589844 66.085938 34.519531 Z M 66.085938 34.519531 " fill-opacity="1" fill-rule="nonzero"/></g><g clip-path="url(#b93cd6ea05)"><g fill="#000000" fill-opacity="1"><g transform="translate(101.406104, 54.862245)"><g><path d="M 23.640625 0.765625 C 19.941406 0.765625 16.648438 0.3125 13.765625 -0.59375 C 10.890625 -1.507812 8.488281 -2.707031 6.5625 -4.1875 C 4.644531 -5.675781 3.175781 -7.304688 2.15625 -9.078125 L 7.953125 -16.15625 L 8.859375 -16.15625 C 10.472656 -13.78125 12.515625 -11.882812 14.984375 -10.46875 C 17.453125 -9.0625 20.335938 -8.359375 23.640625 -8.359375 C 26.460938 -8.359375 28.585938 -8.953125 30.015625 -10.140625 C 31.453125 -11.335938 32.171875 -12.976562 32.171875 -15.0625 C 32.171875 -16.332031 31.941406 -17.390625 31.484375 -18.234375 C 31.023438 -19.085938 30.257812 -19.816406 29.1875 -20.421875 C 28.113281 -21.035156 26.664062 -21.5625 24.84375 -22 L 17.984375 -23.5625 C 13.191406 -24.65625 9.625 -26.472656 7.28125 -29.015625 C 4.9375 -31.554688 3.765625 -34.859375 3.765625 -38.921875 C 3.765625 -41.941406 4.515625 -44.59375 6.015625 -46.875 C 7.523438 -49.164062 9.71875 -50.941406 12.59375 -52.203125 C 15.476562 -53.472656 18.929688 -54.109375 22.953125 -54.109375 C 27.054688 -54.109375 30.570312 -53.566406 33.5 -52.484375 C 36.4375 -51.398438 38.914062 -49.738281 40.9375 -47.5 L 35.71875 -40.34375 L 34.8125 -40.34375 C 33.300781 -41.925781 31.570312 -43.113281 29.625 -43.90625 C 27.675781 -44.695312 25.453125 -45.09375 22.953125 -45.09375 C 20.054688 -45.09375 17.851562 -44.582031 16.34375 -43.5625 C 14.832031 -42.539062 14.078125 -41.128906 14.078125 -39.328125 C 14.078125 -37.648438 14.601562 -36.3125 15.65625 -35.3125 C 16.71875 -34.320312 18.550781 -33.546875 21.15625 -32.984375 L 28.171875 -31.515625 C 33.347656 -30.421875 37.101562 -28.566406 39.4375 -25.953125 C 41.769531 -23.335938 42.9375 -19.925781 42.9375 -15.71875 C 42.9375 -12.382812 42.21875 -9.484375 40.78125 -7.015625 C 39.351562 -4.546875 37.191406 -2.628906 34.296875 -1.265625 C 31.398438 0.0859375 27.847656 0.765625 23.640625 0.765625 Z M 23.640625 0.765625 "/></g></g></g></g><g fill="#000000" fill-opacity="1"><g transform="translate(147.229613, 54.862245)"><g><path d="M 51.1875 0 L 40.09375 0 L 36.078125 -12.296875 L 15.65625 -12.296875 L 11.640625 0 L 0.796875 0 L 19.234375 -53.34375 L 32.765625 -53.34375 Z M 25.359375 -42.21875 L 18.5 -21.15625 L 33.15625 -21.15625 L 26.265625 -42.21875 Z M 25.359375 -42.21875 "/></g></g></g><g fill="#000000" fill-opacity="1"><g transform="translate(199.218871, 54.862245)"><g><path d="M 40.75 -53.34375 L 40.75 -44.515625 L 17.46875 -44.515625 L 17.46875 -30.390625 L 38.59375 -30.390625 L 38.59375 -21.671875 L 17.46875 -21.671875 L 17.46875 0 L 6.9375 0 L 6.9375 -53.34375 Z M 40.75 -53.34375 "/></g></g></g><g fill="#000000" fill-opacity="1"><g transform="translate(242.342586, 54.862245)"><g><path d="M 17.46875 -23.421875 L 17.46875 -8.828125 L 42.9375 -8.828125 L 42.9375 0 L 6.9375 0 L 6.9375 -53.34375 L 42.359375 -53.34375 L 42.359375 -44.515625 L 17.46875 -44.515625 L 17.46875 -32.03125 L 39.21875 -32.03125 L 39.21875 -23.421875 Z M 17.46875 -23.421875 "/></g></g></g><g fill="#2b59ff" fill-opacity="1"><g transform="translate(299.465236, 18.873351)"><g><path d="M 2.375 0 L 2.375 -18.3125 L 9.734375 -18.3125 C 11.628906 -18.3125 13.054688 -17.875 14.015625 -17 C 14.984375 -16.132812 15.46875 -14.929688 15.46875 -13.390625 C 15.46875 -12.273438 15.1875 -11.363281 14.625 -10.65625 C 14.0625 -9.945312 13.21875 -9.40625 12.09375 -9.03125 L 12.09375 -8.765625 C 12.675781 -8.515625 13.144531 -8.144531 13.5 -7.65625 C 13.851562 -7.164062 14.1875 -6.4375 14.5 -5.46875 L 16.328125 0 L 12.609375 0 L 10.828125 -5.46875 C 10.640625 -6.019531 10.429688 -6.445312 10.203125 -6.75 C 9.972656 -7.0625 9.679688 -7.285156 9.328125 -7.421875 C 8.972656 -7.554688 8.507812 -7.625 7.9375 -7.625 L 6 -7.625 L 6 0 Z M 9.296875 -10.5 C 11.046875 -10.5 11.921875 -11.316406 11.921875 -12.953125 C 11.921875 -14.617188 11.046875 -15.453125 9.296875 -15.453125 L 6 -15.453125 L 6 -10.5 Z M 9.296875 -10.5 "/></g></g></g><g fill="#2b59ff" fill-opacity="1"><g transform="translate(316.586231, 18.873351)"><g><path d="M 6 -8.046875 L 6 -3.03125 L 14.75 -3.03125 L 14.75 0 L 2.375 0 L 2.375 -18.3125 L 14.546875 -18.3125 L 14.546875 -15.28125 L 6 -15.28125 L 6 -11 L 13.46875 -11 L 13.46875 -8.046875 Z M 6 -8.046875 "/></g></g></g><g fill="#2b59ff" fill-opacity="1"><g transform="translate(332.329532, 18.873351)"><g><path d="M 5.890625 0 L 2.375 0 L 2.375 -18.3125 L 6.53125 -18.3125 L 13.875 -6.515625 L 14.203125 -6.5625 L 14.203125 -18.3125 L 17.6875 -18.3125 L 17.6875 0 L 13.984375 0 L 6.203125 -12.609375 L 5.890625 -12.546875 Z M 5.890625 0 "/></g></g></g><g fill="#2b59ff" fill-opacity="1"><g transform="translate(352.40631, 18.873351)"><g><path d="M 14.6875 -18.3125 L 14.6875 -15.265625 L 9.390625 -15.265625 L 9.390625 0 L 5.78125 0 L 5.78125 -15.265625 L 0.5 -15.265625 L 0.5 -18.3125 Z M 14.6875 -18.3125 "/></g></g></g><g fill="#2b59ff" fill-opacity="1"><g transform="translate(307.063148, 54.399663)"><g><path d="M 10.015625 0.265625 C 8.328125 0.265625 6.835938 -0.0820312 5.546875 -0.78125 C 4.265625 -1.488281 3.257812 -2.546875 2.53125 -3.953125 C 1.800781 -5.359375 1.4375 -7.09375 1.4375 -9.15625 C 1.4375 -11.21875 1.800781 -12.953125 2.53125 -14.359375 C 3.257812 -15.765625 4.265625 -16.816406 5.546875 -17.515625 C 6.835938 -18.222656 8.328125 -18.578125 10.015625 -18.578125 C 11.773438 -18.578125 13.269531 -18.234375 14.5 -17.546875 C 15.726562 -16.859375 16.609375 -15.804688 17.140625 -14.390625 L 14.5 -12.78125 L 14.1875 -12.796875 C 13.789062 -13.742188 13.253906 -14.421875 12.578125 -14.828125 C 11.910156 -15.242188 11.054688 -15.453125 10.015625 -15.453125 C 8.492188 -15.453125 7.304688 -14.945312 6.453125 -13.9375 C 5.597656 -12.9375 5.171875 -11.34375 5.171875 -9.15625 C 5.171875 -6.976562 5.597656 -5.382812 6.453125 -4.375 C 7.304688 -3.375 8.492188 -2.875 10.015625 -2.875 C 12.390625 -2.875 13.84375 -4.03125 14.375 -6.34375 L 14.6875 -6.34375 L 17.359375 -4.953125 C 16.859375 -3.210938 16.003906 -1.90625 14.796875 -1.03125 C 13.585938 -0.164062 11.992188 0.265625 10.015625 0.265625 Z M 10.015625 0.265625 "/></g></g></g><g fill="#2b59ff" fill-opacity="1"><g transform="translate(325.023286, 54.399663)"><g><path d="M 17.578125 0 L 13.765625 0 L 12.390625 -4.21875 L 5.375 -4.21875 L 4 0 L 0.28125 0 L 6.609375 -18.3125 L 11.25 -18.3125 Z M 8.703125 -14.5 L 6.34375 -7.265625 L 11.390625 -7.265625 L 9.015625 -14.5 Z M 8.703125 -14.5 "/></g></g></g><g fill="#2b59ff" fill-opacity="1"><g transform="translate(342.870703, 54.399663)"><g><path d="M 2.375 0 L 2.375 -18.3125 L 9.734375 -18.3125 C 11.628906 -18.3125 13.054688 -17.875 14.015625 -17 C 14.984375 -16.132812 15.46875 -14.929688 15.46875 -13.390625 C 15.46875 -12.273438 15.1875 -11.363281 14.625 -10.65625 C 14.0625 -9.945312 13.21875 -9.40625 12.09375 -9.03125 L 12.09375 -8.765625 C 12.675781 -8.515625 13.144531 -8.144531 13.5 -7.65625 C 13.851562 -7.164062 14.1875 -6.4375 14.5 -5.46875 L 16.328125 0 L 12.609375 0 L 10.828125 -5.46875 C 10.640625 -6.019531 10.429688 -6.445312 10.203125 -6.75 C 9.972656 -7.0625 9.679688 -7.285156 9.328125 -7.421875 C 8.972656 -7.554688 8.507812 -7.625 7.9375 -7.625 L 6 -7.625 L 6 0 Z M 9.296875 -10.5 C 11.046875 -10.5 11.921875 -11.316406 11.921875 -12.953125 C 11.921875 -14.617188 11.046875 -15.453125 9.296875 -15.453125 L 6 -15.453125 L 6 -10.5 Z M 9.296875 -10.5 "/></g></g></g></svg>